HIERARCHY
ROOT Hips
{
	OFFSET 0.000000 0.000000 0.000000
	CHANNELS 6 Xposition Yposition Zposition Yrotation Xrotation Zrotation
	JOINT Chest
	{
		OFFSET 0.000000 -0.009281 11.569106
		CHANNELS 3 Yrotation Xrotation Zrotation
		JOINT Chest2
		{
			OFFSET -0.000000 0.016865 9.269641
			CHANNELS 3 Yrotation Xrotation Zrotation
			JOINT Chest3
			{
				OFFSET -0.000000 0.000001 8.374491
				CHANNELS 3 Yrotation Xrotation Zrotation
				JOINT Chest4
				{
					OFFSET -0.000000 0.000001 8.374493
					CHANNELS 3 Yrotation Xrotation Zrotation
					JOINT Neck
					{
						OFFSET -0.000000 0.000002 12.152554
						CHANNELS 3 Yrotation Xrotation Zrotation
						JOINT Head
						{
							OFFSET -0.000000 0.040101 7.802319
							CHANNELS 3 Yrotation Xrotation Zrotation
							End Site
							{
								OFFSET -0.000000 0.020947 14.853096
							}
						}
					}
					JOINT RightCollar
					{
						OFFSET 2.894404 0.000001 6.791374
						CHANNELS 3 Yrotation Xrotation Zrotation
						JOINT RightShoulder
						{
							OFFSET 13.574684 0.000001 0.000000
							CHANNELS 3 Yrotation Xrotation Zrotation
							JOINT RightElbow
							{
								OFFSET 23.923903 0.000002 0.000000
								CHANNELS 3 Yrotation Xrotation Zrotation
								JOINT RightWrist
								{
									OFFSET 19.846718 0.012767 0.000000
									CHANNELS 3 Yrotation Xrotation Zrotation
									End Site
									{
										OFFSET 14.973145 0.000001 0.000000
									}
								}
							}
						}
					}
					JOINT LeftCollar
					{
						OFFSET -2.894404 0.000001 6.791374
						CHANNELS 3 Yrotation Xrotation Zrotation
						JOINT LeftShoulder
						{
							OFFSET -13.574684 -0.000001 0.000000
							CHANNELS 3 Yrotation Xrotation Zrotation
							JOINT LeftElbow
							{
								OFFSET -23.923903 -0.000002 0.000000
								CHANNELS 3 Yrotation Xrotation Zrotation
								JOINT LeftWrist
								{
									OFFSET -19.846718 0.012763 0.000000
									CHANNELS 3 Yrotation Xrotation Zrotation
									End Site
									{
										OFFSET -14.973145 -0.000001 0.000000
									}
								}
							}
						}
					}
				}
			}
		}
	}
	JOINT RightHip
	{
		OFFSET 9.469263 0.004643 0.045487
		CHANNELS 3 Yrotation Xrotation Zrotation
		JOINT RightKnee
		{
			OFFSET 0.000000 0.002661 -40.478676
			CHANNELS 3 Yrotation Xrotation Zrotation
			JOINT RightAnkle
			{
				OFFSET 0.000000 0.049106 -35.224068
				CHANNELS 3 Yrotation Xrotation Zrotation
				JOINT RightToe
				{
					OFFSET -0.000001 12.539529 -6.151390
					CHANNELS 3 Yrotation Xrotation Zrotation
					End Site
					{
						OFFSET -0.000001 5.044994 -1.291870
					}
				}
			}
		}
	}
	JOINT LeftHip
	{
		OFFSET -9.469263 0.004641 0.045487
		CHANNELS 3 Yrotation Xrotation Zrotation
		JOINT LeftKnee
		{
			OFFSET 0.000000 0.002661 -40.478676
			CHANNELS 3 Yrotation Xrotation Zrotation
			JOINT LeftAnkle
			{
				OFFSET 0.000000 0.049106 -35.224068
				CHANNELS 3 Yrotation Xrotation Zrotation
				JOINT LeftToe
				{
					OFFSET -0.000001 12.539529 -6.151390
					CHANNELS 3 Yrotation Xrotation Zrotation
					End Site
					{
						OFFSET -0.000001 5.044994 -1.291870
					}
				}
			}
		}
	}
}
MOTION
Frames: 5
Frame Time: 0.016667
-58.865482 7.799937 80.342628 -6.383313 -9.271561 -89.301691 0.756485 -2.454599 2.984612 0.313049 -1.468724 1.364873 0.313049 -1.468725 1.364874 0.238058 -1.100851 1.024352 6.761712 -17.291044 -7.063262 10.056435 4.238509 -10.717339 12.430173 -3.688598 -2.016204 55.782138 -17.149895 34.724671 -6.856629 -28.403087 -6.255565 -18.023018 -1.171661 7.427544 -8.500823 -1.430936 -2.275897 -80.624024 13.386131 6.106097 8.477621 25.921329 5.618354 16.395985 11.440364 -23.294411 11.812134 -8.659004 -6.319593 4.216834 -15.609863 2.725462 -2.814941 14.240059 -0.158412 -0.775192 1.444522 0.083772 4.163128 18.783785 -2.919272 -3.055270 -5.537676 10.674477 2.164547 -18.308886 -3.744026 5.211100 -2.019632 -0.046912 
-57.107445 7.947261 80.485123 -6.896351 -8.404957 -89.519273 0.711410 -2.712475 3.237282 0.342560 -1.498698 1.403332 0.342561 -1.498698 1.403332 0.260350 -1.123244 1.053280 6.166212 -17.328540 -7.020340 8.973356 4.149705 -10.844619 12.533792 -3.697940 -1.803670 56.208984 -16.934634 36.958946 -6.057249 -26.658570 -3.025987 -18.880876 -0.398530 8.366230 -8.528751 -1.233702 -1.873753 -79.510437 14.706673 8.538961 9.512649 25.975460 6.981218 16.378884 10.883210 -22.681762 10.791421 -10.263678 -6.555862 3.899707 -15.941617 3.224839 -1.906699 14.073305 0.381577 -1.063087 2.159641 0.070396 4.032771 15.675066 -0.712840 -3.433926 -1.142865 10.210248 0.482681 -18.095268 -3.634773 5.949369 -3.571701 -0.129123 
-55.364731 8.174438 80.634384 -7.285533 -7.468494 -89.506221 0.684534 -2.886927 3.335336 0.351239 -1.513175 1.412018 0.351239 -1.513175 1.412018 0.266912 -1.134077 1.059822 5.587609 -17.339677 -6.981403 7.919427 4.106927 -10.972678 12.660670 -3.571062 -1.683882 56.891057 -16.554956 38.447237 -5.186624 -25.286663 1.081729 -19.621578 0.167068 9.332804 -8.550595 -1.087858 -1.630486 -78.283223 16.226236 10.881391 10.511505 25.812082 8.314738 16.344808 10.499608 -21.945324 9.579875 -11.580031 -7.086189 3.663779 -16.549239 3.986108 -0.931524 13.785457 0.831744 -2.557760 4.278717 -0.015188 3.086491 13.405290 0.714583 -3.547797 0.896531 9.008684 -0.852967 -17.052694 -2.655608 5.926228 -4.033552 -0.383586 
-53.669682 8.429334 80.772156 -7.459490 -6.610958 -89.055210 0.786700 -2.850502 3.082879 0.371660 -1.511255 1.386926 0.371659 -1.511255 1.386927 0.282160 -1.132605 1.041054 5.015933 -17.321223 -6.949715 6.874569 4.115882 -11.111531 12.731762 -3.350998 -1.617651 57.642125 -16.168832 39.248087 -4.214658 -24.281000 5.803515 -20.350549 0.820378 10.637103 -8.560311 -0.923269 -1.276764 -76.893068 17.741336 13.066158 11.490022 25.321287 9.727382 16.260051 10.153072 -21.074673 8.462830 -12.512301 -7.975500 3.507474 -17.372111 4.796540 0.075824 13.286204 1.154682 -4.005945 6.696583 -0.103617 1.589158 12.410654 1.322547 -2.854069 0.861458 7.426455 -1.987561 -16.139220 -2.238655 5.205614 -3.450510 -0.404912 
-51.921986 8.662969 80.886948 -7.969807 -5.895730 -88.643322 0.996506 -3.148104 3.061139 0.411372 -1.519452 1.352471 0.411373 -1.519451 1.352471 0.311876 -1.138686 1.015318 4.482047 -17.236573 -6.956115 5.882661 4.245617 -11.308329 12.697409 -3.268060 -1.612928 58.273760 -15.869666 39.711300 -3.248521 -23.268585 10.815054 -21.007504 1.729592 12.584136 -8.435153 -0.778823 -0.725469 -75.481896 19.169906 14.960174 12.479317 24.472049 11.099076 16.130959 9.615254 -20.075978 7.512369 -13.669673 -8.448386 3.392981 -18.412640 5.223957 1.217704 12.562536 1.522680 -5.483723 9.440017 -0.264958 0.302931 11.806715 1.776433 -1.947947 -0.777700 5.646143 -3.017813 -15.262905 -2.674897 4.243249 -2.294485 -0.067228 
